<?xml version="1.0" encoding="utf-8"?>
<!-- Generator: Adobe Illustrator 25.0.0, SVG Export Plug-In . SVG Version: 6.00 Build 0)  -->
<svg version="1.1" id="a9ef171e-c144-4eaa-81ce-9e6987a936d9"
	 xmlns="http://www.w3.org/2000/svg" xmlns:xlink="http://www.w3.org/1999/xlink" x="0px" y="0px" viewBox="0 0 1004.9 901"
	 style="enable-background:new 0 0 1004.9 901;" xml:space="preserve">
<style type="text/css">
	.st0{opacity:0.1;enable-background:new    ;}
	.st1{opacity:0.5;}
	.st2{opacity:0.6;fill:#F55F44;stroke:#535461;stroke-miterlimit:10;enable-background:new    ;}
	.st3{opacity:0.6;fill:none;stroke:#535461;stroke-miterlimit:10;enable-background:new    ;}
	.st4{fill:url(#SVGID_1_);}
	.st5{fill:url(#SVGID_2_);}
	.st6{fill:url(#SVGID_3_);}
	.st7{fill:url(#SVGID_4_);}
	.st8{fill:url(#SVGID_5_);}
	.st9{fill:url(#SVGID_6_);}
	.st10{fill:url(#SVGID_7_);}
	.st11{fill:url(#SVGID_8_);}
	.st12{fill:url(#SVGID_9_);}
	.st13{opacity:0.1;}
	.st14{fill:url(#SVGID_10_);}
	.st15{fill:url(#SVGID_11_);}
	.st16{opacity:0.1;fill:url(#SVGID_12_);enable-background:new    ;}
	.st17{fill:url(#SVGID_13_);}
	.st18{fill:url(#SVGID_14_);}
	.st19{fill:url(#SVGID_15_);}
	.st20{fill:url(#SVGID_16_);}
	.st21{opacity:0.1;fill:url(#SVGID_17_);enable-background:new    ;}
	.st22{fill:url(#SVGID_18_);}
	.st23{fill:#F3AD55;}
	.st24{fill:#F38143;}
	.st25{fill:#F8DEA5;}
	.st26{fill:#383F4D;}
	.st27{opacity:0.1;fill:none;stroke:#383F4D;stroke-width:2;stroke-miterlimit:10;enable-background:new    ;}
	.st28{fill:none;stroke:#383F4D;stroke-width:2;stroke-miterlimit:10;}
	.st29{fill:#A0616A;}
	.st30{fill:#2F2E41;}
	.st31{fill:#D0CDE1;}
</style>
<rect x="833.8" y="171.9" class="st0" width="171" height="481"/>
<rect x="437.8" y="277.9" class="st0" width="198" height="375"/>
<path class="st0" d="M239.8,493.4v159.5h198v-503h-66.3c-39.2,51.4-63.9,112.3-71.7,176.4C293.7,376.6,278,440.5,239.8,493.4z"/>
<rect x="635.8" y="69.9" class="st0" width="198" height="583"/>
<g class="st1">
	<path class="st2" d="M532.9,376.8c0,0-136.7,205.7-115.7,266"/>
	<path class="st2" d="M574.3,509.7c0,0-38.3-27.8-105.4-25.5"/>
	<path class="st2" d="M455.2,510.3c0,0-1.6-50.5-46.4-85.1"/>
	<path class="st2" d="M521.2,594.8c0,0-51.4-41.5-86.5-40.2"/>
	<path class="st2" d="M425.5,578.5c0,0-22.1-30.2-61.8-38"/>
</g>
<g class="st1">
	<path class="st3" d="M822,377.3c0,0,43.8,243.1,100.6,272.1"/>
	<path class="st3" d="M943.8,444.6c0,0-46.9,6.4-93.7,54.6"/>
	<path class="st3" d="M858.3,527.4c0,0-36.1-35.3-92.5-29.3"/>
	<path class="st3" d="M964.4,542.7c0,0-65.8,5.6-90.2,30.9"/>
	<path class="st3" d="M884.1,597.1c0,0-36.9-6.5-70.9,15.3"/>
</g>
<g class="st1">
	
		<linearGradient id="SVGID_1_" gradientUnits="userSpaceOnUse" x1="1155.6517" y1="207.4262" x2="1155.6517" y2="370.0797" gradientTransform="matrix(-1 0 0 -1 1437.4591 902.5)">
		<stop  offset="0" style="stop-color:#808080;stop-opacity:0.25"/>
		<stop  offset="0.5351" style="stop-color:#808080;stop-opacity:0.12"/>
		<stop  offset="1" style="stop-color:#808080;stop-opacity:0.1"/>
	</linearGradient>
	<path class="st4" d="M177.2,576.7c0.2,16.4,14.1,29.4,30.5,29.4h2.3c2,0,4,0.8,5.4,2.2c1.1,1,1.9,2.4,2.2,3.8
		c0.2,0.6,0.2,1.2,0.2,1.8v29c0,5.6,1.6,11,4.6,15.7c4.4,6.7,6.7,14.4,6.8,22.4l0,0c0,7.7,6.3,14,14,14c0.1,0,0.2,0,0.2,0
		c7.7-0.1,13.7-6.7,13.7-14.4v-7.3l3.8,0.4v7.3c0,7.7,6.3,14,14,14c0.1,0,0.2,0,0.2,0c7.7-0.1,13.7-6.7,13.7-14.4V677
		c3.8,1.6,25.4,1.6,31.4,0.1l1.6-0.1v4.2c0,7.7,6.3,14,14,14c0.1,0,0.2,0,0.2,0c7.7-0.1,13.7-6.7,13.7-14.4v-6l1.3-0.1v6.6
		c0,1.2,0.1,2.3,0.4,3.5c1.6,6.3,7.3,10.6,13.8,10.5c7-0.3,12.7-5.5,13.6-12.5c0.1-0.6,0.1-1.3,0.1-2v-30.4
		c0-10.4-3.5-20.6-9.9-28.8c-2.3-3-2.4-7.1-0.2-10.2c7.1-10.4,17.6-28,17.3-40.5c0.1-3.4-1.1-6.7-3.3-9.2c-0.1-0.2-0.3-0.3-0.4-0.4
		c-10.2-10.7-28.3-2.3-26.7,12.5c0.5,4.9,0.2,9.9-1.1,14.7c-0.7,2.7-1.7,5.4-2.9,7.9c-2.4,5.2-8,8.3-13.7,7.6
		c-1.9-0.2-3.8-0.3-5.7-0.3h-58.8c-7.1,0-13.4-4.5-15.6-11.2c-0.6-1.7-0.9-3.5-0.9-5.3v-45.7c0-4.9-4-8.9-8.9-8.9
		c-0.1,0-0.2,0-0.3,0c-2.3,0.1-4.6,1.1-6.1,2.9c-1.6,1.8-2.5,4-2.5,6.4c0,2.6-2.1,4.7-4.7,4.7c0,0,0,0,0,0h-27.7
		c-16.5,0-29.9,13.4-29.9,29.8C177.2,576.4,177.2,576.5,177.2,576.7z"/>
	
		<linearGradient id="SVGID_2_" gradientUnits="userSpaceOnUse" x1="1072.0323" y1="207.4262" x2="1072.0323" y2="221.9685" gradientTransform="matrix(-1 0 0 -1 1437.4591 902.5)">
		<stop  offset="0" style="stop-color:#808080;stop-opacity:0.25"/>
		<stop  offset="0.5351" style="stop-color:#808080;stop-opacity:0.12"/>
		<stop  offset="1" style="stop-color:#808080;stop-opacity:0.1"/>
	</linearGradient>
	<path class="st5" d="M351.7,684.6c1.6,6.3,7.3,10.6,13.8,10.5c7-0.3,12.7-5.5,13.6-12.5C370.7,680.3,358.9,678.7,351.7,684.6z"/>
	
		<linearGradient id="SVGID_3_" gradientUnits="userSpaceOnUse" x1="1101.2579" y1="207.4261" x2="1101.2579" y2="221.9684" gradientTransform="matrix(-1 0 0 -1 1437.4591 902.5)">
		<stop  offset="0" style="stop-color:#808080;stop-opacity:0.25"/>
		<stop  offset="0.5351" style="stop-color:#808080;stop-opacity:0.12"/>
		<stop  offset="1" style="stop-color:#808080;stop-opacity:0.1"/>
	</linearGradient>
	<path class="st6" d="M322.5,684.6c1.6,6.3,7.3,10.6,13.8,10.5c7-0.3,12.7-5.5,13.6-12.5C341.4,680.3,329.7,678.7,322.5,684.6z"/>
	
		<linearGradient id="SVGID_4_" gradientUnits="userSpaceOnUse" x1="1162.2505" y1="207.4261" x2="1162.2505" y2="221.9684" gradientTransform="matrix(-1 0 0 -1 1437.4591 902.5)">
		<stop  offset="0" style="stop-color:#808080;stop-opacity:0.25"/>
		<stop  offset="0.5351" style="stop-color:#808080;stop-opacity:0.12"/>
		<stop  offset="1" style="stop-color:#808080;stop-opacity:0.1"/>
	</linearGradient>
	<path class="st7" d="M261.5,684.6c1.6,6.3,7.3,10.6,13.8,10.5c7-0.3,12.7-5.5,13.6-12.5C280.4,680.3,268.7,678.7,261.5,684.6z"/>
	
		<linearGradient id="SVGID_5_" gradientUnits="userSpaceOnUse" x1="1194.0175" y1="207.4261" x2="1194.0175" y2="221.9684" gradientTransform="matrix(-1 0 0 -1 1437.4591 902.5)">
		<stop  offset="0" style="stop-color:#808080;stop-opacity:0.25"/>
		<stop  offset="0.5351" style="stop-color:#808080;stop-opacity:0.12"/>
		<stop  offset="1" style="stop-color:#808080;stop-opacity:0.1"/>
	</linearGradient>
	<path class="st8" d="M229.7,684.6c1.6,6.3,7.3,10.6,13.8,10.5c7-0.3,12.7-5.5,13.6-12.5C248.7,680.3,236.9,678.7,229.7,684.6z"/>
	
		<linearGradient id="SVGID_6_" gradientUnits="userSpaceOnUse" x1="1066.8339" y1="314.1019" x2="1066.8339" y2="346.1273" gradientTransform="matrix(-1 0 0 -1 1437.4591 902.5)">
		<stop  offset="0" style="stop-color:#808080;stop-opacity:0.25"/>
		<stop  offset="0.5351" style="stop-color:#808080;stop-opacity:0.12"/>
		<stop  offset="1" style="stop-color:#808080;stop-opacity:0.1"/>
	</linearGradient>
	<path class="st9" d="M354.9,588.4c9.9-4,21.9-11.2,31.5-17.5c0.1-3.4-1.1-6.7-3.3-9.2c-0.1-0.2-0.3-0.3-0.4-0.4
		c-10.2-10.7-28.3-2.3-26.7,12.5C356.5,578.6,356.1,583.6,354.9,588.4z"/>
	
		<linearGradient id="SVGID_7_" gradientUnits="userSpaceOnUse" x1="1130.3851" y1="283.647" x2="1130.3851" y2="298.9172" gradientTransform="matrix(-1 0 0 -1 1437.4591 902.5)">
		<stop  offset="0" style="stop-color:#808080;stop-opacity:0.25"/>
		<stop  offset="0.5351" style="stop-color:#808080;stop-opacity:0.12"/>
		<stop  offset="1" style="stop-color:#808080;stop-opacity:0.1"/>
	</linearGradient>
	<path class="st10" d="M342.9,603.7c0,0-27.2,34.2-71.7-0.1"/>
	
		<linearGradient id="SVGID_8_" gradientUnits="userSpaceOnUse" x1="1183.8634" y1="314.1654" x2="1183.8634" y2="362.4512" gradientTransform="matrix(-1 0 0 -1 1437.4591 902.5)">
		<stop  offset="0" style="stop-color:#808080;stop-opacity:0.25"/>
		<stop  offset="0.5351" style="stop-color:#808080;stop-opacity:0.12"/>
		<stop  offset="1" style="stop-color:#808080;stop-opacity:0.1"/>
	</linearGradient>
	<path class="st11" d="M257.3,540c0,0-16.5,21.6,0,48.3"/>
	
		<linearGradient id="SVGID_9_" gradientUnits="userSpaceOnUse" x1="1216.3235" y1="256.3092" x2="1216.3235" y2="288.7519" gradientTransform="matrix(-1 0 0 -1 1437.4591 902.5)">
		<stop  offset="0" style="stop-color:#808080;stop-opacity:0.25"/>
		<stop  offset="0.5351" style="stop-color:#808080;stop-opacity:0.12"/>
		<stop  offset="1" style="stop-color:#808080;stop-opacity:0.1"/>
	</linearGradient>
	<path class="st12" d="M217.9,613.7c0,0,14.5,18.1,0.2,32.4"/>
	<g class="st13">
		
			<linearGradient id="SVGID_10_" gradientUnits="userSpaceOnUse" x1="1196.7113" y1="289.0823" x2="1196.7113" y2="308.8413" gradientTransform="matrix(-1 0 0 -1 1437.4591 902.5)">
			<stop  offset="0" style="stop-color:#808080;stop-opacity:0.25"/>
			<stop  offset="0.5351" style="stop-color:#808080;stop-opacity:0.12"/>
			<stop  offset="1" style="stop-color:#808080;stop-opacity:0.1"/>
		</linearGradient>
		<path class="st14" d="M216.6,609.9c1.1,1,0.7,2,1,3.5l47.2-12.4c-2.5-2-5.7-4.3-6.7-7.4C252.5,598.1,241.3,605.4,216.6,609.9z"/>
	</g>
	
		<linearGradient id="SVGID_11_" gradientUnits="userSpaceOnUse" x1="1197.8867" y1="290.353" x2="1197.8867" y2="310.112" gradientTransform="matrix(-1 0 0 -1 1437.4591 902.5)">
		<stop  offset="0" style="stop-color:#808080;stop-opacity:0.25"/>
		<stop  offset="0.5351" style="stop-color:#808080;stop-opacity:0.12"/>
		<stop  offset="1" style="stop-color:#808080;stop-opacity:0.1"/>
	</linearGradient>
	<path class="st15" d="M215.4,608.3c1.1,1,1.9,2.4,2.2,3.8l46-12c-2.6-2-4.5-4.7-5.5-7.8C252.5,596.8,240.1,603.8,215.4,608.3z"/>
	
		<linearGradient id="SVGID_12_" gradientUnits="userSpaceOnUse" x1="1200.3091" y1="293.379" x2="1200.3091" y2="307.5706" gradientTransform="matrix(-1 0 0 -1 1437.4591 902.5)">
		<stop  offset="0" style="stop-color:#808080;stop-opacity:0.25"/>
		<stop  offset="0.5351" style="stop-color:#808080;stop-opacity:0.12"/>
		<stop  offset="1" style="stop-color:#808080;stop-opacity:0.1"/>
	</linearGradient>
	<path class="st16" d="M256.4,594.9c0,0-14.4,10.8-38.5,14.2"/>
	
		<linearGradient id="SVGID_13_" gradientUnits="userSpaceOnUse" x1="1200.3091" y1="294.6497" x2="1200.3091" y2="308.8413" gradientTransform="matrix(-1 0 0 -1 1437.4591 902.5)">
		<stop  offset="0" style="stop-color:#808080;stop-opacity:0.25"/>
		<stop  offset="0.5351" style="stop-color:#808080;stop-opacity:0.12"/>
		<stop  offset="1" style="stop-color:#808080;stop-opacity:0.1"/>
	</linearGradient>
	<path class="st17" d="M256.4,593.7c0,0-14.4,10.8-38.5,14.2"/>
	<g class="st13">
		
			<linearGradient id="SVGID_14_" gradientUnits="userSpaceOnUse" x1="1232.2903" y1="306.6696" x2="1232.2903" y2="324.3309" gradientTransform="matrix(-1 0 0 -1 1437.4591 902.5)">
			<stop  offset="0" style="stop-color:#808080;stop-opacity:0.25"/>
			<stop  offset="0.5351" style="stop-color:#808080;stop-opacity:0.12"/>
			<stop  offset="1" style="stop-color:#808080;stop-opacity:0.1"/>
		</linearGradient>
		<path class="st18" d="M220.4,594.7c0,0-24.1,7.6-30.5-16.5L220.4,594.7z"/>
	</g>
	
		<linearGradient id="SVGID_15_" gradientUnits="userSpaceOnUse" x1="1232.2903" y1="307.9403" x2="1232.2903" y2="325.6015" gradientTransform="matrix(-1 0 0 -1 1437.4591 902.5)">
		<stop  offset="0" style="stop-color:#808080;stop-opacity:0.25"/>
		<stop  offset="0.5351" style="stop-color:#808080;stop-opacity:0.12"/>
		<stop  offset="1" style="stop-color:#808080;stop-opacity:0.1"/>
	</linearGradient>
	<path class="st19" d="M220.4,593.4c0,0-24.1,7.6-30.5-16.5L220.4,593.4z"/>
	
		<linearGradient id="SVGID_16_" gradientUnits="userSpaceOnUse" x1="1260.2452" y1="324.3309" x2="1260.2452" y2="333.2256" gradientTransform="matrix(-1 0 0 -1 1437.4592 902.5)">
		<stop  offset="0" style="stop-color:#808080;stop-opacity:0.25"/>
		<stop  offset="0.5351" style="stop-color:#808080;stop-opacity:0.12"/>
		<stop  offset="1" style="stop-color:#808080;stop-opacity:0.1"/>
	</linearGradient>
	<ellipse class="st20" cx="177.2" cy="573.7" rx="2.5" ry="4.4"/>
	
		<linearGradient id="SVGID_17_" gradientUnits="userSpaceOnUse" x1="1068.5317" y1="237.2894" x2="1068.5317" y2="277.9511" gradientTransform="matrix(-1 0 0 -1 1437.4591 902.5)">
		<stop  offset="0" style="stop-color:#808080;stop-opacity:0.25"/>
		<stop  offset="0.5351" style="stop-color:#808080;stop-opacity:0.12"/>
		<stop  offset="1" style="stop-color:#808080;stop-opacity:0.1"/>
	</linearGradient>
	<path class="st21" d="M369.7,665.2l-5.1-40.7C364.6,624.5,379.9,648.7,369.7,665.2"/>
	
		<linearGradient id="SVGID_18_" gradientUnits="userSpaceOnUse" x1="1069.8024" y1="237.2894" x2="1069.8024" y2="277.9511" gradientTransform="matrix(-1 0 0 -1 1437.4591 902.5)">
		<stop  offset="0" style="stop-color:#808080;stop-opacity:0.25"/>
		<stop  offset="0.5351" style="stop-color:#808080;stop-opacity:0.12"/>
		<stop  offset="1" style="stop-color:#808080;stop-opacity:0.1"/>
	</linearGradient>
	<path class="st22" d="M363.4,624.5c0,0,15.2,24.1,5.1,40.7L363.4,624.5z"/>
</g>
<path class="st23" d="M182,578.4c0.2,15.7,13.5,28.1,29.1,28.1h2.2c1.9,0,3.8,0.7,5.2,2.1c1,1,1.8,2.3,2.1,3.7
	c0.1,0.6,0.2,1.1,0.2,1.7v27.7c0,5.3,1.5,10.5,4.4,15c4.2,6.3,6.4,13.8,6.5,21.4l0,0c0,7.4,6,13.3,13.4,13.3c0.1,0,0.2,0,0.2,0
	c7.3-0.1,13.1-6.4,13.1-13.8v-6.9l3.6,0.4v6.9c0,7.4,6,13.3,13.4,13.3c0.1,0,0.2,0,0.2,0c7.3-0.1,13.1-6.4,13.1-13.8v-3.5
	c3.6,1.5,24.2,1.5,30,0l1.6-0.1v4c0,7.4,6,13.3,13.4,13.3c0.1,0,0.2,0,0.2,0c7.3-0.1,13.1-6.4,13.1-13.8v-5.8l1.2-0.1v6.3
	c0,1.1,0.1,2.2,0.4,3.3c1.5,6,7,10.1,13.2,10c6.7-0.2,12.2-5.3,13-11.9c0.1-0.6,0.1-1.2,0.1-1.9v-29c0-9.9-3.3-19.6-9.5-27.4
	c-2.2-2.8-2.3-6.8-0.2-9.7c6.8-9.9,16.8-26.7,16.5-38.6c0.1-3.2-1.1-6.4-3.2-8.8c-0.1-0.1-0.3-0.3-0.4-0.4
	c-9.8-10.2-27-2.2-25.5,11.9c0.5,4.7,0.2,9.5-1,14.1c-0.7,2.6-1.6,5.1-2.7,7.5c-2.3,5-7.6,7.9-13.1,7.3c-1.8-0.2-3.6-0.3-5.5-0.3
	h-56.1c-6.7,0-12.7-4.3-14.9-10.7c-0.6-1.6-0.9-3.4-0.8-5.1v-43.6c0-4.7-3.8-8.5-8.5-8.5c-0.1,0-0.2,0-0.3,0
	c-2.2,0.1-4.4,1.1-5.9,2.7c-1.5,1.7-2.4,3.9-2.4,6.1c0,2.5-2,4.5-4.5,4.5c0,0,0,0,0,0h-26.4c-15.7,0-28.5,12.7-28.5,28.5
	C181.9,578.1,181.9,578.2,182,578.4L182,578.4z"/>
<path class="st24" d="M348.5,681.3c1.5,6,7,10.1,13.2,10c6.7-0.2,12.2-5.3,13-11.9C366.5,677.3,355.3,675.8,348.5,681.3z"/>
<path class="st24" d="M320.6,681.3c1.5,6,7,10.1,13.2,10c6.7-0.2,12.2-5.3,13-11.9C338.6,677.3,327.5,675.8,320.6,681.3z"/>
<path class="st24" d="M262.4,681.3c1.5,6,7,10.1,13.2,10c6.7-0.2,12.2-5.3,13-11.9C280.4,677.3,269.3,675.8,262.4,681.3z"/>
<path class="st24" d="M232.1,681.3c1.5,6,7,10.1,13.2,10c6.7-0.2,12.2-5.3,13-11.9C250.1,677.3,238.9,675.8,232.1,681.3z"/>
<path class="st25" d="M351.5,589.6c9.4-3.8,20.9-10.7,30.1-16.7c0.1-3.2-1.1-6.4-3.2-8.8c-0.1-0.1-0.3-0.3-0.4-0.4
	c-9.8-10.2-27-2.2-25.5,11.9C353,580.2,352.6,585,351.5,589.6z"/>
<path class="st25" d="M340,604.1c0,0-25.9,32.7-68.4-0.1"/>
<path class="st25" d="M258.3,543.4c0,0-15.8,20.6,0,46.1"/>
<path class="st25" d="M220.7,613.7c0,0,13.9,17.2,0.2,31"/>
<path class="st0" d="M219.5,610.1c1,1,0.7,1.9,1,3.3l45.1-11.8c-2.4-1.9-5.4-4.1-6.4-7C253.8,598.8,243.1,605.8,219.5,610.1z"/>
<path class="st26" d="M218.4,608.6c1,1,1.8,2.3,2.1,3.7l43.9-11.5c-2.5-1.9-4.3-4.5-5.3-7.4C253.8,597.6,242,604.3,218.4,608.6z"/>
<path class="st0" d="M257.5,595.8c0,0-13.7,10.3-36.8,13.5"/>
<path class="st23" d="M257.5,594.6c0,0-13.7,10.3-36.8,13.5"/>
<path class="st0" d="M216.2,599.6c0,0-23,7.3-29.1-15.8L216.2,599.6z"/>
<path class="st23" d="M216.2,598.3c0,0-23,7.3-29.1-15.8L216.2,598.3z"/>
<ellipse class="st26" cx="181.9" cy="575.6" rx="2.4" ry="4.2"/>
<path class="st0" d="M365.6,662.9l-4.8-38.8C360.8,624.1,375.3,647.1,365.6,662.9"/>
<path class="st23" d="M359.6,624.1c0,0,14.5,23,4.8,38.8L359.6,624.1z"/>
<path class="st27" d="M258.3,602.6c0,0,71.2,40.2,124.3,19.5c20.5-8,35.3-26.1,40.2-47.6c2.7-12,7.5-23.5,14.2-33.8
	c19.2-30,53-47.3,88.6-46.8c36.9,0.5,106.2-4.5,126.5-47.4"/>
<path class="st28" d="M258.3,601.3c0,0,71.2,40.2,124.3,19.5c20.5-8,35.3-26.1,40.2-47.6c2.7-12,7.5-23.5,14.2-33.8
	c19.2-30,53-47.3,88.6-46.8c36.9,0.5,106.2-4.5,126.5-47.4"/>
<path class="st29" d="M665.2,418c0,0-31.3,36.5-24.7,38.9s37.3-23.7,35.3-32.9L665.2,418z"/>
<path class="st29" d="M849.5,451.9c0,0,17,45,10,45s-27-35-22-43L849.5,451.9z"/>
<ellipse transform="matrix(0.5786 -0.8156 0.8156 0.5786 -219.2833 1014.2911)" class="st30" cx="872" cy="719.4" rx="37" ry="12"/>
<ellipse transform="matrix(0.7601 -0.6498 0.6498 0.7601 -299.6998 662.885)" class="st30" cx="748" cy="737.4" rx="37" ry="12"/>
<path class="st30" d="M860.1,179.5c-2.8-4-6.3-7.4-9.2-11.3c-6.8-8.9-9.2-20.7-18.4-27.5c-9.1-6.7-23.5-13.4-34.8-12.9
	c-15,0.7-26.8,12.3-37.1,23.2c-7.9,8.3-15.8,16.6-23.6,24.9c-5.7,6-11.6,12.4-13.7,20.4c-2,7.7,0,16,3.6,23.1
	c3.8,7.2,9,13.5,15.4,18.4c7.9-10.9,19-25.9,19-25.9l2.6,37.4c13.4,4.4,27.8,5.3,41.9,4.3l4.2-15.3l4.4,14.5
	c16.9-2.2,33.8-8.1,44.3-21.2C870.2,216.9,870.8,194.7,860.1,179.5z"/>
<circle class="st29" cx="795.5" cy="181.9" r="31"/>
<path class="st29" d="M775.5,196.9c0,0,2,24-11,26s-27,0-27,8s10,81,10,81l25-2l35-34l19-37c0,0-23-10-13-40L775.5,196.9z"/>
<path class="st31" d="M760.5,297.9l-10-27l2-37c0,0,22-3,21.5-21l-16.5,7l-38,6v35c0,0-13,21,2,42l7,44l72-5l23-30l29-57l-30-22l4-6
	l-15.3-10l2.3,19l-7,12C806.5,247.9,774.5,253.9,760.5,297.9z"/>
<path class="st31" d="M725.5,227.9l-6-2c0,0-12,5-12,21c0,16-48,174-48,174l22,6l30-73l18-61L725.5,227.9z"/>
<path class="st31" d="M844.5,254.9h8c0,0,5-4,4,25c-1,29,3,182,3,182l-29-2l-7-165L844.5,254.9z"/>
<path class="st30" d="M806.3,334.3c0,0-67.8-12.5-82.8-0.5c1.4,1.7,2.1,3.8,2,6c0,4,2-1,0,4s-6,1-2,5s5,3,3,6s0,8,0,8s-11,52-1,89
	s93,298,115,291s77-39,74-50s-104-163-104-163s42-131-8-173c0,0,3-4,2-7s-2,0-1-3s6-3,3-6S806.3,334.3,806.3,334.3z"/>
<path class="st30" d="M760.5,441.9c0,0-68,304-54,309s68,6,72,0s32-221,32-221L760.5,441.9z"/>
<path class="st30" d="M762,159.4c0,0,25,30,75,13l-14-25l-33-10L762,159.4z"/>
</svg>
