<svg width="130" height="130" viewBox="0 0 130 130" fill="none" xmlns="http://www.w3.org/2000/svg">
<g clip-path="url(#clip0)">
<circle cx="64.5455" cy="65.5455" r="61.0455" stroke="white" stroke-width="7"/>
<mask id="mask0" mask-type="alpha" maskUnits="userSpaceOnUse" x="6" y="26" width="207" height="208">
<g clip-path="url(#clip1)">
<path d="M107.834 99.6188L106.412 89.6357C106.557 89.5428 106.718 89.4808 106.863 89.3844C112.523 85.2845 115.645 78.5379 115.108 71.5699C115.108 49.9583 104.04 26.8184 87.5683 26.8184C77.1931 27.3889 66.9293 29.2483 57.0133 32.3538C53.1409 33.4901 49.7928 35.9546 47.557 39.3144L39.4604 51.4627C38.0339 53.5944 35.8638 55.1176 33.3742 55.7347L13.4081 60.7228C10.4396 61.4639 8.3163 64.0753 8.1963 67.1326C7.99664 72.9847 8.84003 92.5446 27.9524 98.9165C28.3045 99.0393 28.6742 99.1044 29.0471 99.1093C39.1986 99.227 49.2683 100.943 58.886 104.194L58.022 106.063C52.5021 116.68 49.5765 128.453 49.4847 140.418C49.7144 153.593 54.5913 166.263 63.2544 176.192V213.67C58.6795 215.432 49.7016 220.135 49.7016 229.921C49.7016 231.823 51.2428 233.364 53.144 233.364H149.315C155.29 233.261 160.976 230.772 165.105 226.451C196.931 225.574 211.279 204.014 211.279 188.612C210.872 178.529 208.412 168.634 204.05 159.534C203.347 158.083 201.732 157.314 200.163 157.683C198.594 158.052 197.491 159.461 197.509 161.073C197.509 185.817 178.231 192.819 166.734 194.788C165.814 194.949 164.869 194.724 164.121 194.165C163.4 193.643 162.927 192.845 162.816 191.962C159.219 163.823 135.108 121.096 124.416 110.445C119.926 105.454 114.21 101.722 107.834 99.6188ZM53.2714 43.1355C54.6073 41.1242 56.6083 39.6472 58.9239 38.9632C68.2202 36.0418 77.8406 34.2752 87.5683 33.7032C98.3775 33.7032 108.223 51.7518 108.223 71.5699C108.683 76.2446 106.706 80.8274 102.99 83.701C97.7754 86.5927 91.5 86.848 86.0674 84.3895C84.7589 83.8552 83.9051 82.5807 83.909 81.1674V57.8002C83.909 55.899 82.3678 54.3578 80.4666 54.3578C78.5654 54.3578 77.0241 55.899 77.0241 57.8002V71.5699H59.812V61.2426C59.812 55.539 55.1883 50.9153 49.4847 50.9153H48.1078L53.2714 43.1355ZM49.4847 57.8002C51.3859 57.8002 52.9272 59.3414 52.9272 61.2426V75.0123H46.0423V57.8002H49.4847ZM52.9272 81.8971V95.1918C50.5932 94.6135 48.273 94.1591 46.0423 93.7701V81.8971H52.9272ZM35.0438 62.4302C36.4828 62.0485 37.8657 61.4803 39.1575 60.74V75.0123H28.8302V63.9965L35.0438 62.4302ZM15.0777 67.4218L21.9453 65.7178V75.0123H15.656C15.19 72.5162 14.9972 69.9768 15.0812 67.439L15.0777 67.4218ZM17.9143 81.8971H21.9453V87.4773C20.2986 85.8562 18.9359 83.9699 17.9143 81.8971ZM28.8302 91.8802V81.8971H39.1575V92.8372C34.5687 92.3552 31.0093 92.252 29.6357 92.2279C29.3534 92.128 29.1056 92.0007 28.8302 91.8802ZM155.986 192.833C156.327 195.581 157.788 198.066 160.024 199.7C162.287 201.368 165.129 202.046 167.901 201.576C177.009 200.014 196.129 194.43 202.38 174.908C203.642 179.37 204.319 183.976 204.394 188.612C204.394 201.105 191.268 219.594 163.085 219.594C161.507 219.594 160.131 220.666 159.746 222.197C156.884 224.811 153.189 226.329 149.315 226.479H143.959C145.198 224.395 145.858 222.018 145.873 219.594C145.873 217.693 144.331 216.152 142.43 216.152C140.529 216.152 138.988 217.693 138.988 219.594C138.988 223.397 135.905 226.479 132.103 226.479H86.391C88.99 223.329 94.2363 219.594 104.564 219.594C106.301 219.592 107.765 218.296 107.976 216.571C108.188 214.847 107.082 213.235 105.397 212.813C105.286 212.785 94.2363 209.855 94.2363 195.497C94.0568 186.948 97.912 178.813 104.643 173.538C110.347 169.566 117.655 168.699 124.13 171.225C125.936 171.825 127.888 170.848 128.488 169.042C129.089 167.236 128.112 165.285 126.306 164.684C117.727 161.477 108.119 162.702 100.619 167.958C92.1046 174.535 87.1883 184.74 87.3514 195.497C87.1022 202.338 89.646 208.987 94.3981 213.914C87.3934 215.417 81.464 220.047 78.3082 226.479H57.4264C59.9738 221.515 67.4611 219.512 67.5437 219.487C69.07 219.1 70.1389 217.726 70.1393 216.152V174.843C70.14 173.932 69.7798 173.058 69.1375 172.412C61.1985 163.614 56.6695 152.265 56.3696 140.418C56.4613 129.45 59.1761 118.663 64.2872 108.958L65.165 107.054C65.9453 105.366 65.9926 103.43 65.2958 101.705C64.5891 99.9595 63.202 98.5773 61.4541 97.8769C60.9205 97.6635 60.3731 97.4672 59.8292 97.271V78.4547H77.0413V81.1674C77.0167 85.4101 79.603 89.2315 83.551 90.7855C88.7246 92.8505 94.3836 93.3811 99.8509 92.3139L101.038 100.617C101.426 103.333 103.402 105.552 106.054 106.252C111.259 108.071 115.911 111.191 119.569 115.316C128.619 124.353 152.499 165.548 155.986 192.833Z" fill="black"/>
</g>
</mask>
<g mask="url(#mask0)">
<circle cx="64.5455" cy="65.5455" r="64.0455" fill="white" stroke="black"/>
</g>
</g>
<defs>
<clipPath id="clip0">
<rect width="130" height="130" fill="white"/>
</clipPath>
<clipPath id="clip1">
<rect width="206.545" height="206.545" fill="white" transform="translate(6.45459 26.8184)"/>
</clipPath>
</defs>
</svg>
