<?xml version="1.0" encoding="utf-8"?>
<!-- Generator: Adobe Illustrator 25.0.0, SVG Export Plug-In . SVG Version: 6.00 Build 0)  -->
<svg version="1.1" id="레이어_1" xmlns="http://www.w3.org/2000/svg" xmlns:xlink="http://www.w3.org/1999/xlink" x="0px"
	 y="0px" viewBox="0 0 130 130" style="enable-background:new 0 0 130 130;" xml:space="preserve">
<style type="text/css">
	.st0{fill:#FFFFFF;}
</style>
<path class="st0" d="M65,0C29.2,0,0,29.2,0,65s29.2,65,65,65s65-29.2,65-65S100.8,0,65,0z M65,123c-15.9,0-30.4-6.5-40.9-16.9
	c-4.2-4.2-7.7-9-10.5-14.2C9.4,83.8,7,74.7,7,65C7,33,33,7,65,7c15.2,0,29,5.9,39.3,15.4c5.4,5,9.8,10.9,13,17.6
	c3.6,7.6,5.7,16,5.7,25C123,97,97,123,65,123z"/>
<path class="st0" d="M43.8,57.5c3.9,0,7-3.1,7-7s-3.1-7-7-7c-3.9,0-7,3.1-7,7S39.9,57.5,43.8,57.5z"/>
<path class="st0" d="M87.3,57.5c3.9,0,7-3.1,7-7s-3.1-7-7-7c-3.9,0-7,3.1-7,7S83.4,57.5,87.3,57.5z"/>
<path class="st0" d="M65.1,78.7c-13.6,0-26.6,7-34.1,18.5l5.9,3.8c6.9-10.6,19.4-16.5,31.9-15.1c9.8,1.1,18.8,6.8,24.2,15.1l5.9-3.8
	C92.5,87.1,81.5,80.3,69.7,79C68.2,78.8,66.6,78.7,65.1,78.7z"/>
</svg>
