<svg width="130" height="130" viewBox="0 0 130 130" fill="none" xmlns="http://www.w3.org/2000/svg">
<path d="M65 0C29.159 0 0 29.159 0 65C0 100.841 29.159 130 65 130C100.841 130 130 100.841 130 65C130 29.159 100.841 0 65 0ZM65 122.973C49.0765 122.973 34.6327 116.518 24.1452 106.09C19.957 101.926 16.4017 97.1262 13.6335 91.8515C9.41722 83.8191 7.02712 74.6838 7.02712 65C7.02712 33.0336 33.0336 7.02712 65 7.02712C80.1623 7.02712 93.9812 12.8807 104.322 22.4438C109.684 27.4014 114.112 33.3551 117.304 40.0098C120.936 47.5811 122.973 56.0571 122.973 65C122.973 96.9664 96.9664 122.973 65 122.973Z" fill="white"/>
<path d="M43.7727 57.5337C47.6537 57.5337 50.7999 54.3876 50.7999 50.5066C50.7999 46.6256 47.6537 43.4795 43.7727 43.4795C39.8918 43.4795 36.7456 46.6256 36.7456 50.5066C36.7456 54.3876 39.8918 57.5337 43.7727 57.5337Z" fill="white"/>
<path d="M87.2532 57.5337C91.1342 57.5337 94.2803 54.3876 94.2803 50.5066C94.2803 46.6256 91.1342 43.4795 87.2532 43.4795C83.3722 43.4795 80.2261 46.6256 80.2261 50.5066C80.2261 54.3876 83.3722 57.5337 87.2532 57.5337Z" fill="white"/>
<path d="M64.8757 101.012C78.4706 101.012 91.4993 94.06 98.959 82.5166L93.0567 78.7026C86.2066 89.3026 73.6768 95.2181 61.1303 93.7705C51.3529 92.6431 42.3112 87.01 36.9429 78.7026L31.041 82.5166C37.5367 92.5693 48.4841 99.3856 60.3248 100.752C61.8448 100.927 63.3627 101.012 64.8757 101.012Z" fill="white"/>
</svg>
